# xmcd
#
# Track frame offsets: 
#        150
#        20195
#        37415
#        51514
#        65847
#        80027
#        95522
#        109290
#        128872
#        145152
#        163312
#        176347
#        194797
#
# Disc length: 2884 seconds
#
# Revision: 0
# Processed by: cddbd v1.5.1PL0 Copyright (c) Steve Scherf et al.
# Submitted via: ExactAudioCopy v0.95a5
#
DISCID=d40b420d
DTITLE=100 Folk Celsius - Orszagut
DYEAR=1997
DGENRE=Country
TTITLE0=Filo Zsofia
TTITLE1=Zorog a lanc
TTITLE2=Minden jot kedvesem
TTITLE3=Orszagut
TTITLE4=Valaki lanya
TTITLE5=Az ordog elment Georgia-ba
TTITLE6=A konyhalany
TTITLE7=Janka, a lelkisegely
TTITLE8=Nezz vissza honnan jottel
TTITLE9=Lattad-e mar?
TTITLE10=Szombathelyi gyors
TTITLE11=A fuggony mogott
TTITLE12=Keresnek egy erdot
EXTD=
EXTT0=
EXTT1=
EXTT2=
EXTT3=
EXTT4=
EXTT5=
EXTT6=
EXTT7=
EXTT8=
EXTT9=
EXTT10=
EXTT11=
EXTT12=
PLAYORDER=
